<svg width="32" height="32" viewBox="0 0 32 32" fill="none" xmlns="http://www.w3.org/2000/svg">
  <!-- Background circle with gradient -->
  <circle cx="16" cy="16" r="16" fill="url(#gradient)" />
  
  <!-- Traditional Japanese pattern (Asanoha) -->
  <g opacity="0.2">
    <path d="M16 4 L20 8 L16 12 L12 8 Z" fill="white" />
    <path d="M8 16 L12 20 L8 24 L4 20 Z" fill="white" />
    <path d="M24 16 L28 20 L24 24 L20 20 Z" fill="white" />
    <path d="M16 20 L20 24 L16 28 L12 24 Z" fill="white" />
  </g>
  
  <!-- Outer Tsuba ring -->
  <circle cx="16" cy="16" r="12" fill="none" stroke="white" stroke-width="1.5" opacity="0.6" />
  
  <!-- Inner Tsuba design -->
  <circle cx="16" cy="16" r="8" fill="none" stroke="white" stroke-width="2" opacity="0.9" />
  <circle cx="16" cy="16" r="5" fill="none" stroke="white" stroke-width="1" opacity="0.7" />
  
  <!-- Stylized Water Kanji (水) -->
  <g transform="translate(16, 16)" stroke="white" fill="none" stroke-linecap="round" stroke-linejoin="round">
    <!-- Main vertical stroke -->
    <path d="M0 -3 L0 3" stroke-width="1.5" opacity="0.9" />
    <!-- Horizontal strokes -->
    <path d="M-2 -1 L2 -1" stroke-width="1.2" opacity="0.8" />
    <path d="M-3 1 L3 1" stroke-width="1.2" opacity="0.8" />
    <!-- Side strokes -->
    <path d="M-2 -2 L-1 0" stroke-width="1" opacity="0.7" />
    <path d="M2 -2 L1 0" stroke-width="1" opacity="0.7" />
    <path d="M-2.5 2 L-1 3" stroke-width="1" opacity="0.7" />
    <path d="M2.5 2 L1 3" stroke-width="1" opacity="0.7" />
  </g>
  
  <!-- Decorative sword elements -->
  <g opacity="0.4">
    <circle cx="10" cy="10" r="0.8" fill="white" />
    <circle cx="22" cy="10" r="0.8" fill="white" />
    <circle cx="10" cy="22" r="0.8" fill="white" />
    <circle cx="22" cy="22" r="0.8" fill="white" />
  </g>
  
  <!-- Breathing effect particles -->
  <g opacity="0.5">
    <circle cx="16" cy="6" r="0.5" fill="white">
      <animate attributeName="opacity" values="0.3;0.8;0.3" dur="2s" repeatCount="indefinite" />
    </circle>
    <circle cx="26" cy="16" r="0.5" fill="white">
      <animate attributeName="opacity" values="0.8;0.3;0.8" dur="2s" repeatCount="indefinite" />
    </circle>
    <circle cx="16" cy="26" r="0.5" fill="white">
      <animate attributeName="opacity" values="0.3;0.8;0.3" dur="2s" repeatCount="indefinite" />
    </circle>
    <circle cx="6" cy="16" r="0.5" fill="white">
      <animate attributeName="opacity" values="0.8;0.3;0.8" dur="2s" repeatCount="indefinite" />
    </circle>
  </g>
  
  <!-- Gradient definition -->
  <defs>
    <linearGradient id="gradient" x1="0%" y1="0%" x2="100%" y2="100%">
      <stop offset="0%" style="stop-color:#dc2626;stop-opacity:1" />
      <stop offset="30%" style="stop-color:#1e40af;stop-opacity:1" />
      <stop offset="70%" style="stop-color:#0ea5e9;stop-opacity:1" />
      <stop offset="100%" style="stop-color:#67e8f9;stop-opacity:1" />
    </linearGradient>
  </defs>
</svg>